<svg height="60" width="80" xmlns="http://www.w3.org/2000/svg"><g fill="#428bca" transform="matrix(.26621355 0 0 -.26621355 -1.7481125 53.46896625)"><path d="m138.83307 12.458409c-45.902769 3.090707-84.128995 16.270227-96.904548 33.410455-2.723974 3.654597-4.859391 8.900506-4.859391 11.937669v1.274475l2.941642.22205c1.617903.122128 3.062359.147433 3.209903.05627.14754-.0912.348106-.939426.445711-1.884976.863222-8.363107 11.988811-17.787885 29.223651-24.756108 32.879212-13.293407 80.816542-17.738592 123.744952-11.474751 32.55859 4.750745 59.43244 15.341753 69.40472 27.352467 2.23013 2.685981 4.17111 6.673751 4.41943 9.079779l.19696 1.909196 2.14817-.202945c1.18148-.111601 2.62443-.203954 3.20652-.205251.98232-.0021 1.05834-.08046 1.05834-1.08998 0-.598215-.28899-2.217553-.64219-3.59853-5.43589-21.254126-47.21611-38.488792-101.93587-42.049336-8.8682-.577044-26.94525-.56716-35.65809.01947v.000011z"/><path d="m143.88056 37.0736c-17.25834.932977-34.94361 4.005134-48.805921 8.478212-22.663345 7.312991-36.367428 18.092201-37.765498 29.705187l-.248436 2.063683 3.089117.202909c1.699012.111601 3.157195.134852 3.240395.05162.0832-.0832.272912-.920761.421592-1.861242 1.295657-8.196267 12.631517-16.872669 29.862914-22.856893 39.448047-13.699761 97.043917-12.631582 133.075407 2.468026 10.01318 4.19619 18.16724 9.950824 21.40897 15.109142 1.12972 1.797637 2.20726 4.833988 2.20726 6.219752v1.172899l1.70962-.20536c.94031-.112935 2.42657-.206622 3.30283-.208172l1.59322-.0028-.20013-1.913745c-1.00188-9.585665-10.74176-18.938368-27.08406-26.007482-21.62582-9.354577-54.48472-14.109046-85.80736-12.415757z"/><path d="m147.78829 61.810242c-28.80074 1.300545-53.928998 9.074459-65.142439 20.15308-3.886138 3.839414-6.091436 7.807243-6.654916 11.973694l-.231206 1.709636 2.065839.0035c1.13621.002 2.596314.09134 3.24467.198548l1.178833.194978.222518-1.483877c.86142-5.744364 7.617167-11.883713 18.208971-16.547585 20.23575-8.910373 52.82565-12.201198 81.46325-8.225901 20.13938 2.795622 37.0914 9.136918 44.67916 16.713269 2.98125 2.976776 4.04576 4.879779 4.82025 8.617069.18143.875388.27129.922696 1.3988.736282.66271-.109547 2.09655-.200818 3.18631-.202801l1.98138-.0035-.26195-1.91549c-2.33321-17.060801-32.21788-30.156802-72.90029-31.946232-8.02504-.352973-8.91052-.351675-17.25916.02523v.000014z"/><path d="m145.4952 82.99868c-.0224.712333 11.86895 79.3815 11.98176 79.26869.11816-.11816 11.14847-78.576486 11.15096-79.31651.00091-.266244-.50879.273813-1.13264 1.200172-1.70948 2.538437-4.31741 4.98017-6.27762 5.877586-2.25784 1.033671-5.58652.937779-8.00157-.23052-1.8003-.870901-4.63721-3.35633-6.46004-5.659661-.686-.866831-1.25338-1.379723-1.26085-1.139761z"/></g></svg>