<?xml version="1.0" encoding="UTF-8" standalone="no"?>
<!-- Created with Inkscape (http://www.inkscape.org/) -->

<svg
   xmlns:dc="http://purl.org/dc/elements/1.1/"
   xmlns:cc="http://creativecommons.org/ns#"
   xmlns:rdf="http://www.w3.org/1999/02/22-rdf-syntax-ns#"
   xmlns:svg="http://www.w3.org/2000/svg"
   xmlns="http://www.w3.org/2000/svg"
   xmlns:sodipodi="http://sodipodi.sourceforge.net/DTD/sodipodi-0.dtd"
   xmlns:inkscape="http://www.inkscape.org/namespaces/inkscape"
   id="svg2985"
   version="1.1"
   inkscape:version="0.48.4 r9939"
   width="80"
   height="60"
   xml:space="preserve"
   sodipodi:docname="EFMWhite60x80.svg"
   inkscape:export-filename="C:\Users\Diego\Pictures\EFM Logo\EFM Logo\EFMWhite100x150.png"
   inkscape:export-xdpi="90"
   inkscape:export-ydpi="90"><metadata
     id="metadata2991"><rdf:RDF><cc:Work
         rdf:about=""><dc:format>image/svg+xml</dc:format><dc:type
           rdf:resource="http://purl.org/dc/dcmitype/StillImage" /><dc:title></dc:title></cc:Work></rdf:RDF></metadata><defs
     id="defs2989" /><sodipodi:namedview
     pagecolor="#ffffff"
     bordercolor="#666666"
     borderopacity="1"
     objecttolerance="10"
     gridtolerance="10"
     guidetolerance="10"
     inkscape:pageopacity="0"
     inkscape:pageshadow="2"
     inkscape:window-width="1536"
     inkscape:window-height="803"
     id="namedview2987"
     showgrid="false"
     inkscape:zoom="1.4142136"
     inkscape:cx="-64.955288"
     inkscape:cy="130.95055"
     inkscape:window-x="-8"
     inkscape:window-y="-8"
     inkscape:window-maximized="1"
     inkscape:current-layer="g2993"
     borderlayer="false" /><g
     id="g2993"
     inkscape:groupmode="layer"
     inkscape:label="EFMLogo"
     transform="matrix(1.25,0,0,-1.25,0,60)"><g
       id="g3797"
       transform="matrix(0.21297084,0,0,0.21297084,-1.3984901,5.2248265)"
       style="fill:#cccccc;opacity:1;fill-opacity:0.75294119"><path
         inkscape:connector-curvature="0"
         id="path4001"
         d="M 138.83307,12.458409 C 92.930301,15.549116 54.704075,28.728636 41.928522,45.868864 39.204548,49.523461 37.069131,54.76937 37.069131,57.806533 l 0,1.274475 2.941642,0.22205 c 1.617903,0.122128 3.062359,0.147433 3.209903,0.05627 0.14754,-0.0912 0.348106,-0.939426 0.445711,-1.884976 C 44.529609,49.111245 55.655198,39.686467 72.890038,32.718244 105.76925,19.424837 153.70658,14.979652 196.63499,21.243493 c 32.55859,4.750745 59.43244,15.341753 69.40472,27.352467 2.23013,2.685981 4.17111,6.673751 4.41943,9.079779 l 0.19696,1.909196 2.14817,-0.202945 c 1.18148,-0.111601 2.62443,-0.203954 3.20652,-0.205251 0.98232,-0.0021 1.05834,-0.08046 1.05834,-1.08998 0,-0.598215 -0.28899,-2.217553 -0.64219,-3.59853 -5.43589,-21.254126 -47.21611,-38.488792 -101.93587,-42.049336 -8.8682,-0.577044 -26.94525,-0.56716 -35.65809,0.01947 l 0,1.1e-5 z"
         style="fill:#cccccc;fill-opacity:0.75294119;stroke:none" /><path
         inkscape:connector-curvature="0"
         id="path4003"
         d="m 143.88056,37.0736 c -17.25834,0.932977 -34.94361,4.005134 -48.805921,8.478212 -22.663345,7.312991 -36.367428,18.092201 -37.765498,29.705187 l -0.248436,2.063683 3.089117,0.202909 c 1.699012,0.111601 3.157195,0.134852 3.240395,0.05162 0.0832,-0.0832 0.272912,-0.920761 0.421592,-1.861242 C 65.107466,67.517702 76.443326,58.8413 93.674723,52.857076 133.12277,39.157315 190.71864,40.225494 226.75013,55.325102 c 10.01318,4.19619 18.16724,9.950824 21.40897,15.109142 1.12972,1.797637 2.20726,4.833988 2.20726,6.219752 l 0,1.172899 1.70962,-0.20536 c 0.94031,-0.112935 2.42657,-0.206622 3.30283,-0.208172 l 1.59322,-0.0028 -0.20013,-1.913745 C 255.77002,65.911153 246.03014,56.55845 229.68784,49.489336 208.06202,40.134759 175.20312,35.38029 143.88048,37.073579 z"
         style="fill:#cccccc;fill-opacity:0.75294119;stroke:none" /><path
         inkscape:connector-curvature="0"
         id="path4005"
         d="m 147.78829,61.810242 c -28.80074,1.300545 -53.928998,9.074459 -65.142439,20.15308 -3.886138,3.839414 -6.091436,7.807243 -6.654916,11.973694 l -0.231206,1.709636 2.065839,0.0035 c 1.13621,0.002 2.596314,0.09134 3.24467,0.198548 l 1.178833,0.194978 0.222518,-1.483877 c 0.86142,-5.744364 7.617167,-11.883713 18.208971,-16.547585 20.23575,-8.910373 52.82565,-12.201198 81.46325,-8.225901 20.13938,2.795622 37.0914,9.136918 44.67916,16.713269 2.98125,2.976776 4.04576,4.879779 4.82025,8.617069 0.18143,0.875388 0.27129,0.922696 1.3988,0.736282 0.66271,-0.109547 2.09655,-0.200818 3.18631,-0.202801 l 1.98138,-0.0035 -0.26195,-1.91549 c -2.33321,-17.060801 -32.21788,-30.156802 -72.90029,-31.946232 -8.02504,-0.352973 -8.91052,-0.351675 -17.25916,0.02523 l 0,1.4e-5 z"
         style="fill:#cccccc;fill-opacity:0.75294119;stroke:none" /><path
         inkscape:connector-curvature="0"
         id="path4007"
         d="m 145.4952,82.99868 c -0.0224,0.712333 11.86895,79.3815 11.98176,79.26869 0.11816,-0.11816 11.14847,-78.576486 11.15096,-79.31651 9.1e-4,-0.266244 -0.50879,0.273813 -1.13264,1.200172 -1.70948,2.538437 -4.31741,4.98017 -6.27762,5.877586 -2.25784,1.033671 -5.58652,0.937779 -8.00157,-0.23052 -1.8003,-0.870901 -4.63721,-3.35633 -6.46004,-5.659661 -0.686,-0.866831 -1.25338,-1.379723 -1.26085,-1.139761 l 0,0 z"
         style="fill:#cccccc;fill-opacity:0.75294119;stroke:none" /></g></g></svg>